<svg width="411" height="112" viewBox="0 0 411 112" fill="none" xmlns="http://www.w3.org/2000/svg">
<path fill-rule="evenodd" clip-rule="evenodd" d="M372.505 55.201C372.75 55.202 372.929 55.196 373.187 55.202C373.399 55.208 373.551 55.161 373.551 55.491C373.551 57.315 373.488 57.771 373.104 59.307C371.664 65.643 367.656 70.179 361.08 72.915C354.504 75.651 346.752 77.019 337.824 77.019C333.312 77.019 329.088 76.731 325.152 76.155C325.056 81.147 326.4 84.651 329.184 86.667C331.968 88.683 335.856 89.691 340.848 89.691C343.152 89.691 345.36 89.427 347.472 88.899C349.584 88.371 352.272 87.579 355.536 86.523C358.224 85.563 360.048 85.083 361.008 85.083C362.064 85.083 362.592 85.707 362.592 86.955C362.688 90.315 361.44 93.843 358.848 97.539C356.256 101.235 352.416 104.379 347.328 106.971C342.24 109.563 336.096 110.859 328.896 110.859C318.24 110.859 309.504 108.171 302.688 102.795C295.872 97.419 292.464 89.595 292.464 79.323C292.464 76.443 292.848 73.083 293.616 69.243C296.016 57.435 301.272 48.531 309.384 42.531C317.496 36.531 327.36 33.531 338.976 33.531C347.664 33.531 353.302 34.463 356.176 36.223C355.607 38.891 355.38 42.072 355.3 44.093C355.196 46.697 356.233 49.276 357.151 51.006C357.515 51.693 358.238 52.416 358.61 52.871C359.952 54.508 363.017 55.264 364.86 55.264L372.505 55.201ZM326.16 67.515C326.544 67.611 327.072 67.659 327.744 67.659C331.776 67.659 334.848 65.787 336.96 62.043C339.072 58.299 340.08 54.123 339.984 49.515C339.888 46.827 339.12 45.483 337.68 45.483C336.624 45.483 335.376 46.323 333.936 48.003C332.496 49.683 331.08 52.203 329.688 55.563C328.296 58.923 327.12 62.907 326.16 67.515Z" fill="url(#paint0_linear_1_5)"/>
<path fill-rule="evenodd" clip-rule="evenodd" d="M276.192 90.555C276 90.939 275.904 91.515 275.904 92.283C275.904 92.955 276.072 93.483 276.408 93.867C276.744 94.251 277.2 94.443 277.776 94.443C278.928 94.443 279.912 93.939 280.728 92.931C281.544 91.923 282.096 91.419 282.384 91.419C282.864 91.419 283.248 91.731 283.536 92.355C283.824 92.979 283.968 93.723 283.968 94.587C284.064 97.371 283.152 100.083 281.232 102.723C279.312 105.363 276.504 107.523 272.808 109.203C269.112 110.883 264.672 111.723 259.488 111.723C253.152 111.723 248.112 110.259 244.368 107.331C240.624 104.403 238.704 100.491 238.608 95.595C238.608 92.043 239.472 88.059 241.2 83.643L249.12 62.907C249.6 61.659 249.84 60.651 249.84 59.883C249.84 58.635 249.432 57.651 248.616 56.931C247.8 56.211 246.816 55.851 245.664 55.851C243.552 55.851 241.536 56.835 239.616 58.803C237.696 60.771 236.304 63.195 235.44 66.075L226.512 95.451C226.128 96.507 225.936 97.515 225.936 98.475C225.936 99.627 226.176 100.563 226.656 101.283C227.136 102.003 227.808 102.747 228.672 103.515C229.344 104.091 229.824 104.619 230.112 105.099C230.4 105.579 230.448 106.155 230.256 106.827C229.872 108.075 228.96 108.987 227.52 109.563C226.08 110.139 223.824 110.427 220.752 110.427H187.92C185.424 110.427 183.624 110.019 182.52 109.203C181.416 108.387 181.008 107.307 181.296 105.963C181.68 104.811 182.688 103.803 184.32 102.939C185.76 102.171 186.96 101.259 187.92 100.203C188.88 99.147 189.696 97.467 190.368 95.163L203.184 53.547C203.376 53.067 203.472 52.395 203.472 51.531C203.472 50.475 203.256 49.659 202.824 49.083C202.392 48.507 201.696 47.787 200.736 46.923C199.776 46.155 199.104 45.483 198.72 44.907C198.336 44.331 198.288 43.563 198.576 42.603C199.152 40.395 202.176 38.451 207.648 36.771C213.12 35.091 218.832 34.251 224.784 34.251C229.584 34.251 233.376 35.571 236.16 38.211C238.944 40.851 240.192 44.523 239.904 49.227C243.84 43.563 248.016 39.651 252.432 37.491C256.848 35.331 261.648 34.251 266.832 34.251C272.688 34.251 277.416 36.027 281.016 39.579C284.616 43.131 286.416 47.739 286.416 53.403C286.416 56.379 285.936 59.307 284.976 62.187L276.192 90.555Z" fill="url(#paint1_linear_1_5)"/>
<path fill-rule="evenodd" clip-rule="evenodd" d="M78.768 89.691C78.576 90.459 78.48 90.987 78.48 91.275C78.48 91.947 78.672 92.475 79.056 92.859C79.44 93.243 79.92 93.435 80.496 93.435C81.648 93.435 82.632 92.931 83.448 91.923C84.264 90.915 84.816 90.411 85.104 90.411C85.584 90.411 85.968 90.747 86.256 91.419C86.544 92.091 86.688 92.859 86.688 93.723C86.784 96.315 85.8 98.955 83.736 101.643C81.672 104.331 78.912 106.539 75.456 108.267C72 109.995 68.256 110.859 64.224 110.859C59.424 110.859 55.248 109.947 51.696 108.123C48.144 106.299 45.696 103.899 44.352 100.923C41.76 104.283 38.784 106.779 35.424 108.411C32.064 110.043 28.512 110.859 24.768 110.859C20.352 110.859 16.248 109.755 12.456 107.547C8.66399 105.339 5.64 102.195 3.384 98.115C1.128 94.035 0 89.403 0 84.219C0 75.483 1.65602 67.251 4.96802 59.523C8.28002 51.795 12.912 45.555 18.864 40.803C24.816 36.051 31.584 33.675 39.168 33.675C43.296 33.675 46.824 34.155 49.752 35.115C52.68 36.075 55.344 37.515 57.744 39.435L62.64 23.307C62.928 22.443 63.072 21.723 63.072 21.147C63.072 20.091 62.808 19.227 62.28 18.555C61.752 17.883 61.056 17.211 60.192 16.539C59.232 15.771 58.536 15.099 58.104 14.523C57.672 13.947 57.6 13.179 57.888 12.219C58.464 10.011 61.488 8.09101 66.96 6.45901C72.432 4.82701 78.144 4.01099 84.096 4.01099C89.664 4.01099 93.768 5.06702 96.408 7.17902C99.048 9.29102 100.368 12.171 100.368 15.819C100.368 17.931 100.032 19.995 99.36 22.011L78.768 89.691ZM54.72 49.227C53.184 47.883 51.504 47.211 49.68 47.211C46.896 47.211 44.16 49.275 41.472 53.403C38.784 57.531 36.624 62.523 34.992 68.379C33.36 74.235 32.592 79.515 32.688 84.219C32.688 89.499 34.416 92.139 37.872 92.139C39.12 92.139 40.176 91.635 41.04 90.627C41.904 89.619 42.72 87.963 43.488 85.659L54.72 49.227Z" fill="url(#paint2_linear_1_5)"/>
<path fill-rule="evenodd" clip-rule="evenodd" d="M148.32 34.251C161.376 34.251 171 36.891 177.192 42.171C183.384 47.451 186.48 54.363 186.48 62.907C186.48 65.787 186.096 69.003 185.328 72.555C183.504 80.427 180.096 87.315 175.104 93.219C170.112 99.123 163.992 103.683 156.744 106.899C149.496 110.115 141.648 111.723 133.2 111.723C119.856 111.723 109.992 109.059 103.608 103.731C97.224 98.403 94.032 91.323 94.032 82.491C94.032 79.515 94.416 76.203 95.184 72.555C97.008 65.067 100.488 58.419 105.624 52.611C110.76 46.803 117.048 42.291 124.488 39.075C131.928 35.859 139.872 34.251 148.32 34.251ZM147.888 47.067C145.872 47.067 143.736 48.867 141.48 52.467C139.224 56.067 136.56 62.859 133.488 72.843C130.416 82.827 128.88 89.835 128.88 93.867C128.88 95.979 129.216 97.395 129.888 98.115C130.56 98.835 131.472 99.195 132.624 99.195C134.64 99.387 136.728 97.659 138.888 94.011C141.048 90.363 143.76 83.259 147.024 72.699C150 63.387 151.488 56.619 151.488 52.395C151.488 50.379 151.176 48.987 150.552 48.219C149.928 47.451 149.04 47.067 147.888 47.067Z" fill="url(#paint3_linear_1_5)"/>
<path fill-rule="evenodd" clip-rule="evenodd" d="M387.795 -0.000518799C392.547 -0.000518799 396.67 0.705132 400.162 2.11566C403.656 3.5262 406.318 5.36998 408.147 7.647C409.977 9.92324 410.892 12.3488 410.892 14.9228C410.892 15.8632 410.749 16.8281 410.464 17.8177C409.799 19.897 408.681 21.5299 407.113 22.7181C405.545 23.9062 403.145 24.9828 399.913 25.9477C396.681 26.9127 391.715 28.0639 385.014 29.3998C380.974 30.1917 377.945 30.8973 375.925 31.516C373.905 32.1347 372.503 32.7903 371.72 33.4836C370.935 34.1762 370.496 35.0673 370.4 36.1562H390.931C393.783 36.1562 395.945 35.7599 397.418 34.9681C398.892 34.1762 400.27 33.112 401.553 31.7761C402.123 31.132 402.587 30.6749 402.943 30.4025C403.299 30.1301 403.715 29.9939 404.19 29.9939C405.046 29.9939 405.83 30.6003 406.543 31.813C407.256 33.0258 407.612 34.5725 407.612 36.4532C407.612 37.6906 407.398 39.1012 406.971 40.6848C406.021 43.8529 404.309 46.1046 401.838 47.4412C399.367 48.7779 395.636 49.4458 390.646 49.4458H365.482C363.961 49.4458 362.737 48.7779 361.81 47.4412C360.884 46.1046 360.42 44.2985 360.42 42.0215C360.42 40.3385 360.706 38.5071 361.276 36.5271C362.274 33.112 364.103 30.3525 366.765 28.2494C369.427 26.1455 373.181 24.3764 378.028 22.9412C381.26 21.9509 383.755 20.9736 385.513 20.0086C387.271 19.0428 388.531 18.0778 389.291 17.1129C390.052 16.1479 390.646 14.9474 391.073 13.5123C391.311 12.5219 391.43 11.7054 391.43 11.0621C391.43 9.67621 391.026 8.56271 390.219 7.72085C389.41 6.87977 388.318 6.45885 386.939 6.45885C386.559 6.45885 385.894 6.55811 384.943 6.75587C384.991 7.05291 385.014 7.49846 385.014 8.09253C385.014 11.4576 384.04 13.9825 382.092 15.6646C380.143 17.3476 377.696 18.1894 374.749 18.1894C372.563 18.1894 370.829 17.5954 369.546 16.4072C368.262 15.2199 367.621 13.6108 367.621 11.5816C367.621 10.592 367.739 9.70083 367.977 8.909C368.833 5.98867 370.994 3.774 374.464 2.2642C377.933 0.7544 382.377 -0.000518799 387.795 -0.000518799Z" fill="url(#paint4_linear_1_5)"/>
<defs>
<linearGradient id="paint0_linear_1_5" x1="333.008" y1="33.531" x2="333.008" y2="110.859" gradientUnits="userSpaceOnUse">
<stop stop-color="#41D1FF"/>
<stop offset="1" stop-color="#7545FF"/>
</linearGradient>
<linearGradient id="paint1_linear_1_5" x1="233.811" y1="34.251" x2="233.811" y2="111.723" gradientUnits="userSpaceOnUse">
<stop stop-color="#41D1FF"/>
<stop offset="1" stop-color="#7545FF"/>
</linearGradient>
<linearGradient id="paint2_linear_1_5" x1="50.184" y1="4.01099" x2="50.184" y2="110.859" gradientUnits="userSpaceOnUse">
<stop stop-color="#41D1FF"/>
<stop offset="1" stop-color="#7545FF"/>
</linearGradient>
<linearGradient id="paint3_linear_1_5" x1="140.256" y1="34.251" x2="140.256" y2="111.723" gradientUnits="userSpaceOnUse">
<stop stop-color="#41D1FF"/>
<stop offset="1" stop-color="#7545FF"/>
</linearGradient>
<linearGradient id="paint4_linear_1_5" x1="385.656" y1="-0.000518799" x2="385.656" y2="49.4458" gradientUnits="userSpaceOnUse">
<stop stop-color="#41D1FF"/>
<stop offset="1" stop-color="#7299FC"/>
</linearGradient>
</defs>
</svg>
