<svg width="821" height="224" viewBox="0 0 821 224" fill="none" xmlns="http://www.w3.org/2000/svg">
<path fill-rule="evenodd" clip-rule="evenodd" d="M744.2 110.282C744.689 110.284 745.047 110.272 745.562 110.284C745.986 110.296 746.29 110.203 746.29 110.862C746.29 114.506 746.164 115.417 745.397 118.485C742.52 131.144 734.513 140.206 721.375 145.672C708.237 151.138 692.75 153.871 674.913 153.871C665.899 153.871 657.46 153.296 649.597 152.145C649.405 162.118 652.09 169.118 657.652 173.146C663.214 177.174 670.982 179.187 680.955 179.187C685.558 179.187 689.969 178.66 694.188 177.605C698.408 176.55 703.778 174.968 710.299 172.858C715.669 170.94 719.313 169.981 721.231 169.981C723.341 169.981 724.395 171.228 724.395 173.721C724.587 180.434 722.094 187.482 716.916 194.866C711.737 202.25 704.066 208.531 693.901 213.71C683.736 218.888 671.461 221.477 657.077 221.477C635.788 221.477 618.335 216.107 604.718 205.367C591.101 194.627 584.292 178.996 584.292 158.474C584.292 152.72 585.059 146.008 586.594 138.336C591.388 114.746 601.889 96.957 618.095 84.97C634.302 72.9831 654.008 66.9896 677.215 66.9896C694.572 66.9896 705.836 68.8516 711.578 72.3677C710.441 77.6979 709.987 84.053 709.827 88.0906C709.62 93.2929 711.691 98.4454 713.525 101.902C714.253 103.274 715.697 104.719 716.44 105.628C719.121 108.898 725.245 110.408 728.927 110.408L744.2 110.282ZM651.611 134.884C652.378 135.075 653.433 135.171 654.775 135.171C662.831 135.171 668.968 131.431 673.187 123.952C677.407 116.472 679.42 108.129 679.229 98.9229C679.037 93.5527 677.503 90.8676 674.626 90.8676C672.516 90.8676 670.023 92.5458 667.146 95.9021C664.269 99.2585 661.44 104.293 658.659 111.006C655.878 117.718 653.529 125.678 651.611 134.884Z" fill="url(#paint0_linear_3_3)"/>
<path fill-rule="evenodd" clip-rule="evenodd" d="M551.783 180.914C551.4 181.681 551.208 182.831 551.208 184.366C551.208 185.708 551.544 186.763 552.215 187.53C552.886 188.297 553.797 188.681 554.948 188.681C557.25 188.681 559.215 187.674 560.846 185.66C562.476 183.647 563.579 182.64 564.154 182.64C565.113 182.64 565.88 183.263 566.456 184.51C567.031 185.756 567.319 187.243 567.319 188.969C567.51 194.531 565.688 199.949 561.852 205.223C558.017 210.497 552.407 214.813 545.023 218.169C537.639 221.525 528.768 223.204 518.412 223.204C505.754 223.204 495.684 220.279 488.205 214.429C480.725 208.58 476.889 200.764 476.697 190.983C476.697 183.886 478.423 175.927 481.876 167.105L497.698 125.678C498.657 123.184 499.137 121.171 499.137 119.636C499.137 117.143 498.322 115.177 496.691 113.739C495.061 112.3 493.095 111.581 490.794 111.581C486.574 111.581 482.547 113.547 478.711 117.479C474.875 121.41 472.094 126.253 470.368 132.007L452.532 190.695C451.764 192.805 451.381 194.818 451.381 196.736C451.381 199.038 451.86 200.908 452.819 202.346C453.778 203.785 455.121 205.271 456.847 206.805C458.189 207.956 459.148 209.011 459.724 209.97C460.299 210.929 460.395 212.08 460.011 213.422C459.244 215.915 457.422 217.738 454.545 218.888C451.668 220.039 447.161 220.614 441.024 220.614H375.431C370.445 220.614 366.849 219.799 364.643 218.169C362.438 216.539 361.622 214.381 362.198 211.696C362.965 209.395 364.979 207.381 368.239 205.655C371.116 204.12 373.513 202.298 375.431 200.189C377.349 198.079 378.98 194.723 380.322 190.12L405.926 106.978C406.31 106.019 406.502 104.677 406.502 102.95C406.502 100.841 406.07 99.2105 405.207 98.0598C404.344 96.909 402.953 95.4706 401.036 93.7445C399.118 92.2102 397.775 90.8676 397.008 89.7169C396.241 88.5661 396.145 87.0318 396.72 85.1139C397.871 80.7027 403.912 76.8189 414.845 73.4625C425.777 70.1062 437.188 68.428 449.079 68.428C458.669 68.428 466.245 71.0652 471.807 76.3394C477.369 81.6137 479.862 88.9497 479.286 98.3474C487.15 87.0318 495.493 79.2163 504.315 74.901C513.138 70.5857 522.727 68.428 533.084 68.428C544.783 68.428 554.229 71.9762 561.421 79.0725C568.613 86.1687 572.209 95.3747 572.209 106.69C572.209 112.636 571.25 118.486 569.332 124.239L551.783 180.914Z" fill="url(#paint1_linear_3_3)"/>
<path fill-rule="evenodd" clip-rule="evenodd" d="M157.365 179.187C156.981 180.722 156.789 181.777 156.789 182.352C156.789 183.695 157.173 184.749 157.94 185.517C158.707 186.284 159.666 186.667 160.817 186.667C163.118 186.667 165.084 185.66 166.715 183.647C168.345 181.633 169.448 180.626 170.023 180.626C170.982 180.626 171.749 181.297 172.324 182.64C172.9 183.982 173.188 185.517 173.188 187.243C173.379 192.421 171.413 197.695 167.29 203.065C163.166 208.436 157.652 212.847 150.748 216.299C143.843 219.751 136.364 221.477 128.308 221.477C118.719 221.477 110.376 219.655 103.28 216.011C96.1833 212.367 91.2926 207.573 88.6075 201.627C83.4292 208.34 77.4837 213.326 70.771 216.587C64.0583 219.847 56.962 221.477 49.4821 221.477C40.6598 221.477 32.4607 219.272 24.8849 214.861C17.3091 210.449 11.2677 204.168 6.76065 196.017C2.25355 187.866 0 178.612 0 168.255C0 150.802 3.30843 134.356 9.92523 118.917C16.542 103.478 25.7959 91.0115 37.687 81.5178C49.5781 72.0241 63.0993 67.2773 78.2508 67.2773C86.4978 67.2773 93.5462 68.2362 99.3958 70.1541C105.245 72.072 110.568 74.9489 115.362 78.7848L125.144 46.5638C125.719 44.8377 126.007 43.3993 126.007 42.2485C126.007 40.1388 125.479 38.4127 124.425 37.0702C123.37 35.7276 121.979 34.3851 120.253 33.0426C118.335 31.5082 116.945 30.1657 116.082 29.015C115.219 27.8642 115.075 26.3298 115.65 24.4119C116.801 20.0007 122.842 16.165 133.774 12.9045C144.706 9.64405 156.118 8.01377 168.009 8.01377C179.133 8.01377 187.332 10.1235 192.606 14.3429C197.881 18.5623 200.518 24.316 200.518 31.6041C200.518 35.8235 199.847 39.947 198.504 43.9746L157.365 179.187ZM109.321 98.3474C106.252 95.6624 102.896 94.3198 99.252 94.3198C93.69 94.3198 88.224 98.4434 82.8538 106.69C77.4837 114.937 73.1684 124.911 69.9079 136.61C66.6475 148.309 65.1132 158.858 65.305 168.255C65.305 178.804 68.7572 184.078 75.6617 184.078C78.1549 184.078 80.2646 183.071 81.9908 181.057C83.7169 179.044 85.3471 175.735 86.8814 171.132L109.321 98.3474Z" fill="url(#paint2_linear_3_3)"/>
<path fill-rule="evenodd" clip-rule="evenodd" d="M296.317 68.428C322.401 68.428 341.628 73.7023 353.999 84.2508C366.369 94.7993 372.554 108.608 372.554 125.678C372.554 131.431 371.787 137.857 370.253 144.953C366.609 160.68 359.8 174.441 349.827 186.236C339.854 198.031 327.627 207.141 313.147 213.566C298.667 219.991 282.988 223.204 266.11 223.204C239.451 223.204 219.745 217.881 206.991 207.237C194.237 196.592 187.86 182.448 187.86 164.803C187.86 158.858 188.627 152.241 190.161 144.953C193.805 129.993 200.757 116.711 211.018 105.108C221.279 93.5047 233.841 84.4906 248.705 78.0656C263.569 71.6406 279.44 68.428 296.317 68.428ZM295.454 94.0321C291.427 94.0321 287.159 97.6283 282.652 104.82C278.145 112.013 272.823 125.582 266.686 145.528C260.548 165.474 257.48 179.475 257.48 187.53C257.48 191.75 258.151 194.579 259.494 196.017C260.836 197.456 262.658 198.175 264.96 198.175C268.987 198.558 273.159 195.106 277.474 187.818C281.789 180.53 287.207 166.337 293.728 145.24C299.674 126.637 302.647 113.115 302.647 104.677C302.647 100.649 302.023 97.868 300.777 96.3336C299.53 94.7993 297.756 94.0321 295.454 94.0321Z" fill="url(#paint3_linear_3_3)"/>
<path fill-rule="evenodd" clip-rule="evenodd" d="M774.746 -0.000518799C784.24 -0.000518799 792.477 1.40925 799.455 4.22724C806.434 7.04524 811.752 10.7288 815.406 15.2779C819.062 19.8254 820.89 24.6712 820.89 29.8137C820.89 31.6923 820.605 33.6202 820.035 35.5972C818.706 39.7512 816.474 43.0135 813.341 45.3872C810.209 47.7609 805.414 49.9117 798.957 51.8396C792.5 53.7674 782.579 56.0673 769.191 58.7362C761.12 60.3182 755.068 61.7279 751.033 62.964C746.997 64.2 744.197 65.5098 742.631 66.895C741.063 68.2786 740.186 70.0589 739.995 72.2343H781.013C786.71 72.2343 791.028 71.4426 793.972 69.8606C796.916 68.2787 799.669 66.1525 802.232 63.4836C803.371 62.1968 804.298 61.2836 805.01 60.7394C805.722 60.1951 806.553 59.923 807.502 59.923C809.211 59.923 810.777 61.1345 812.201 63.5574C813.626 65.9803 814.338 69.0704 814.338 72.8277C814.338 75.2998 813.911 78.1178 813.057 81.2817C811.158 87.611 807.739 92.1094 802.803 94.7798C797.866 97.4502 790.412 98.7846 780.443 98.7846H730.169C727.131 98.7846 724.685 97.4502 722.834 94.7798C720.983 92.1094 720.057 88.5012 720.057 83.9521C720.057 80.5899 720.627 76.931 721.766 72.9753C723.76 66.1525 727.415 60.6394 732.732 56.4378C738.05 52.2346 745.55 48.7003 755.234 45.8331C761.691 43.8545 766.675 41.902 770.188 39.9742C773.701 38.0448 776.218 36.1169 777.736 34.189C779.256 32.2612 780.443 29.8629 781.296 26.9957C781.771 25.0171 782.008 23.3859 782.008 22.1007C782.008 19.3319 781.202 17.1073 779.589 15.4254C777.973 13.7451 775.791 12.9042 773.036 12.9042C772.277 12.9042 770.948 13.1025 769.049 13.4976C769.145 14.091 769.191 14.9811 769.191 16.168C769.191 22.8909 767.246 27.935 763.352 31.2957C759.459 34.658 754.57 36.3398 748.684 36.3398C744.315 36.3398 740.851 35.153 738.287 32.7793C735.723 30.4071 734.442 27.1925 734.442 23.1385C734.442 21.1614 734.679 19.3811 735.154 17.7991C736.863 11.9648 741.182 7.54031 748.113 4.52399C755.045 1.50768 763.923 -0.000518799 774.746 -0.000518799Z" fill="url(#paint4_linear_3_3)"/>
<defs>
<linearGradient id="paint0_linear_3_3" x1="881.041" y1="293.681" x2="-197.785" y2="-155.83" gradientUnits="userSpaceOnUse">
<stop stop-color="#673CFF"/>
<stop offset="1" stop-color="#41D1FF"/>
</linearGradient>
<linearGradient id="paint1_linear_3_3" x1="881.041" y1="293.681" x2="-197.785" y2="-155.83" gradientUnits="userSpaceOnUse">
<stop stop-color="#673CFF"/>
<stop offset="1" stop-color="#41D1FF"/>
</linearGradient>
<linearGradient id="paint2_linear_3_3" x1="881.041" y1="293.681" x2="-197.785" y2="-155.83" gradientUnits="userSpaceOnUse">
<stop stop-color="#673CFF"/>
<stop offset="1" stop-color="#41D1FF"/>
</linearGradient>
<linearGradient id="paint3_linear_3_3" x1="881.041" y1="293.681" x2="-197.785" y2="-155.83" gradientUnits="userSpaceOnUse">
<stop stop-color="#673CFF"/>
<stop offset="1" stop-color="#41D1FF"/>
</linearGradient>
<linearGradient id="paint4_linear_3_3" x1="881.041" y1="293.681" x2="-197.785" y2="-155.83" gradientUnits="userSpaceOnUse">
<stop stop-color="#673CFF"/>
<stop offset="1" stop-color="#41D1FF"/>
</linearGradient>
</defs>
</svg>
